<?xml version="1.0" encoding="UTF-8" standalone="no"?>
<!-- Created with Inkscape (http://www.inkscape.org/) -->

<svg
   xmlns:dc="http://purl.org/dc/elements/1.1/"
   xmlns:cc="http://creativecommons.org/ns#"
   xmlns:rdf="http://www.w3.org/1999/02/22-rdf-syntax-ns#"
   xmlns:svg="http://www.w3.org/2000/svg"
   xmlns="http://www.w3.org/2000/svg"
   xmlns:sodipodi="http://sodipodi.sourceforge.net/DTD/sodipodi-0.dtd"
   xmlns:inkscape="http://www.inkscape.org/namespaces/inkscape"
   width="210mm"
   height="297mm"
   viewBox="0 0 744.09448819 1052.3622047"
   id="svg4818"
   version="1.1"
   inkscape:version="0.91 r13725"
   sodipodi:docname="Exhaust-Fire.svg"
   inkscape:export-filename="C:\`My General Stuff\Coding\Unity\Kinetic Astro Miner\kineticAstroMiner\Drawings\Exhaust-Fire.png"
   inkscape:export-xdpi="12.095238"
   inkscape:export-ydpi="12.095238">
  <defs
     id="defs4820" />
  <sodipodi:namedview
     id="base"
     pagecolor="#ffffff"
     bordercolor="#666666"
     borderopacity="1.0"
     inkscape:pageopacity="0.0"
     inkscape:pageshadow="2"
     inkscape:zoom="0.24748737"
     inkscape:cx="-2378.4573"
     inkscape:cy="-482.55898"
     inkscape:document-units="px"
     inkscape:current-layer="layer12"
     showgrid="false"
     inkscape:window-width="1920"
     inkscape:window-height="1018"
     inkscape:window-x="-8"
     inkscape:window-y="-8"
     inkscape:window-maximized="1" />
  <metadata
     id="metadata4823">
    <rdf:RDF>
      <cc:Work
         rdf:about="">
        <dc:format>image/svg+xml</dc:format>
        <dc:type
           rdf:resource="http://purl.org/dc/dcmitype/StillImage" />
        <dc:title />
      </cc:Work>
    </rdf:RDF>
  </metadata>
  <g
     inkscape:groupmode="layer"
     id="layer12"
     inkscape:label="Outer"
     style="display:inline">
    <path
       style="fill:#ffd42a;fill-rule:evenodd;stroke:#000000;stroke-width:40;stroke-linecap:butt;stroke-linejoin:miter;stroke-miterlimit:18;stroke-dasharray:none;stroke-opacity:1"
       d="m -20.68394,-91.917893 c -84.02083,37.23846 -121.73752,92.44996014 -122.75049,179.3232 56.16818,257.338643 101.93272,419.089173 -182.90263,291.678453 18.71921,56.69064 84.47444,109.41482 142.9479,142.87123 54.18519,31.00282 177.53971,25.43893 181.2612,47.10912 -107.89635,114.44107 -274.53999,246.50155 -376.10338,369.07795 83.13209,-35.32498 390.074245,-263.27716 439.462172,-223.44772 35.18008,33.95274 15.123499,207.34872 22.762919,221.13882 14.15835,164.06834 28.394809,200.93484 8.971649,378.41474 0,0 52.08312,-229.3893 75.171,-344.70164 24.68266,-123.27746 5.49754,-277.14959 67.71091,-371.04491 137.93417,169.00851 112.18132,288.75401 242.22435,347.16731 71.37978,15.012 235.29448,97.13994 235.29448,97.13994 0,0 -116.50905,-115.85944 -186.43921,-155.90134 -165.09607,-120.096 -14.1593,-200.25053 57.15769,-263.8527 64.95732,-57.93046 139.78562,-104.16232 213.61722,-167.92921 0,0 -127.2891,55.4916 -194.209,51.95851 -37.09313,-1.95836 -72.67121,-20.0464 -104.01731,-39.9752 C 465.36765,307.63434 526.40388,221.30878 531.03438,155.0271 536.22118,81.891097 497.31999,17.896757 461.36316,-40.715463 421.18799,-101.69914 304.43179,-114.92884 240.79432,-124.56529 147.34323,-145.47958 59.083921,-131.5371 -20.68394,-91.917893 Z"
       id="path5366"
       inkscape:connector-curvature="0"
       sodipodi:nodetypes="cccacccccaccccscaccccc" />
    <path
       style="display:inline;fill:#ffd42a;fill-rule:evenodd;stroke:#000000;stroke-width:40;stroke-linecap:butt;stroke-linejoin:miter;stroke-miterlimit:18;stroke-dasharray:none;stroke-opacity:1"
       d="m -1647.7811,-134.30297 c -84.0208,37.2384 -121.7375,92.4499 -122.7505,179.323196 221.8082,558.717574 -205.7597,408.821264 -205.7597,408.821264 0,0 108.9635,84.96893 174.3764,97.15691 57.1478,10.64798 168.9683,-45.98957 172.6898,-24.31937 -90.7534,128.72671 -161.8177,546.22077 -161.8177,546.22077 0,0 175.7886,-440.41997 225.1765,-400.59057 35.1801,33.9527 15.1235,207.3487 22.7629,221.1388 -17.0907,177.46777 268.9717,406.98617 268.9717,406.98617 0,0 -138.2445,-252.0871 -133.4004,-353.2731 6.0119,-125.58034 -3.074,-274.29243 59.1394,-368.18773 137.9341,169.0085 152.1813,283.03972 282.2243,387.16733 71.37977,40.7262 243.86597,-85.71721 243.86597,-85.71721 0,0 -147.9376,66.99771 -217.86777,26.95578 -96.5247,-120.096 -74.1593,-263.10764 -2.8423,-326.70984 64.95727,-57.9304 319.33147,112.0708 319.33147,112.0708 0,0 -190.2227,-166.89598 -299.92327,-228.0415 -32.4451,-18.08446 -72.6712,-20.0464 -104.0173,-39.9752 -34.1079,-159.4743 26.9283,-245.7999 31.5588,-312.0815 5.1868,-73.136004 -33.7143,-137.1304 -69.6712,-195.7426 -40.1751,-60.9837 -156.9313,-74.2134 -220.5688,-83.8498 -93.4511,-20.9143 -181.7104,-6.9718 -261.4783,32.6474 z"
       id="path5366-4"
       inkscape:connector-curvature="0"
       sodipodi:nodetypes="cccacccccsccccscaccccc" />
    <path
       style="fill:#ff6600;fill-rule:evenodd;stroke:#000000;stroke-width:20;stroke-linecap:butt;stroke-linejoin:miter;stroke-miterlimit:4;stroke-dasharray:none;stroke-opacity:1"
       d="m -1607.8537,-89.43237 c 80.0494,-51.8176 202.8755,-61.5161 285.7143,-14.2857 53.2921,30.3844 75.9065,102.3007525 85.7143,162.857096 9.6847,59.796044 -34.742,113.908574 -29.5519,179.306774 30.0611,75.8299 89.7481,179.10109 95.182,254.34519 -19.2408,-11.43494 -76.7438,-62.45467 -93.855,-86.26397 -5.4581,29.42593 -25.5743,79.98614 -39.7128,124.04061 -37.6916,-94.1407 -19.4517,-158.72294 -87.1254,-192.89924 0,0 -26.7627,64.50654 -36.4496,97.9797 -10.7615,37.18653 -23.897,113.65195 -23.897,113.65195 0,0 -48.5987,-87.85861 -61.7332,-101.58961 -14.5064,14.5994 -37.8361,112.03775 -37.8361,112.03775 -15.0838,1.37126 -39.0896,-135.86485 -16.4496,-177.75195 -23.5372,-7.5707 -48.7033,38.04943 -91.082,50.66603 7.551,-8.0544 58.0574,-126.57571 51.7157,-161.74801 -13.847,-76.7988 -78.0723,-143.30368 -72.0623,-220.346624 4.0744,-52.2309335 27.4491,-111.531196 71.4286,-139.999996 z"
       id="path5368-3"
       inkscape:connector-curvature="0"
       sodipodi:nodetypes="aaacccccacccccsaa" />
    <path
       style="display:inline;fill:#d40000;fill-rule:evenodd;stroke:#000000;stroke-width:15;stroke-linecap:butt;stroke-linejoin:miter;stroke-miterlimit:4;stroke-dasharray:none;stroke-opacity:1"
       d="m -1525.5998,-78.29847 c 35.0613,-27.8431 96.5163,-26.899 134.2857,-2.8572 33.813,21.5234 47.072,69.946 48.5714,109.999996 1.1719,31.3055 -28.2401,57.4067 -31.4286,88.571504 -2.8376,27.7357 11.4286,82.8571 11.4286,82.8571 l -75.7143,-50 -65.7143,35.7143 c 0,0 -53.0179,-78.8751 -57.1428,-124.285704 -4.3569,-47.963796 -2.0012,-110.049296 35.7143,-139.999996 z"
       id="path5370-9"
       inkscape:connector-curvature="0"
       sodipodi:nodetypes="aaaacccaa" />
    <path
       style="display:inline;fill:#ffd42a;fill-rule:evenodd;stroke:#000000;stroke-width:40;stroke-linecap:butt;stroke-linejoin:miter;stroke-miterlimit:18;stroke-dasharray:none;stroke-opacity:1"
       d="m -3233.5607,-190.30451 c -84.0208,37.2384 -121.7375,92.449909 -122.7505,179.323199 -31.6243,563.997421 -95.0859,665.409251 -163.3333,772.476191 0,0 120.8766,-106.81519 164.2749,-171.54367 34.192,-50.99745 136.6434,-140.94391 140.3649,-119.27371 -58.4285,154.99068 -188.0817,449.24616 -188.0817,449.24616 0,0 220.2353,-286.87682 269.6232,-247.04742 35.1801,33.9527 -3.0592,150.78015 4.5802,164.57025 -17.0907,177.46781 -173.4751,501.94051 -173.4751,501.94051 0,0 279.9586,-383.4069 284.8027,-484.5929 6.0119,-125.5804 21.1697,-237.92696 83.3831,-331.82226 137.9341,169.0085 152.1813,283.03965 282.2243,387.16735 71.3798,40.7262 130.7289,257.73461 130.7289,257.73461 0,0 -34.8005,-276.45411 -104.7307,-316.49611 -96.5247,-120.09595 -74.1593,-263.10759 -2.8423,-326.70979 64.9573,-57.9304 258.7223,281.77643 258.7223,281.77643 0,0 -120.7733,-298.30044 -239.3141,-397.74713 -28.457,-23.87327 -72.6712,-20.0464 -104.0173,-39.9752 -34.1079,-159.4743 26.9283,-245.7999 31.5588,-312.081501 5.1868,-73.13601 -33.7143,-137.1304 -69.6712,-195.742599 -40.1751,-60.98371 -156.9313,-74.21341 -220.5688,-83.84981 -93.4511,-20.9143 -181.7104,-6.9718 -261.4783,32.6474 z"
       id="path5366-4-4"
       inkscape:connector-curvature="0"
       sodipodi:nodetypes="cccscccccsccccscaccccc" />
    <path
       style="display:inline;fill:#ff6600;fill-rule:evenodd;stroke:#000000;stroke-width:20;stroke-linecap:butt;stroke-linejoin:miter;stroke-miterlimit:4;stroke-dasharray:none;stroke-opacity:1"
       d="m -3193.6333,-145.4339 c 80.0494,-51.81761 202.8755,-61.51611 285.7143,-14.28571 53.2921,30.38441 75.9065,102.300759 85.7143,162.8570995 9.6847,59.7960495 -34.742,113.9085805 -29.5519,179.3067805 17.9393,75.8299 67.5247,166.97926 111.3444,244.24366 -19.2408,-11.43494 -64.6219,-46.29222 -110.0174,-76.16244 -13.4794,27.82168 12.9349,96.57732 16.8557,144.24366 -54.9886,-56.66387 -76.8716,-112.0947 -129.5518,-178.7571 l -24.3277,91.91878 c -11.1809,42.24533 -46.1204,105.57073 -46.1204,105.57073 0,0 -10.2129,-126.24441 -23.3474,-139.97541 -3.0577,37.49689 -74.3532,162.24217 -78.2422,154.46416 6.826,-18.54678 -4.5575,-193.33794 -18.4699,-201.99561 -23.5372,-7.5707 -109.3125,84.51645 -151.6912,97.13305 7.551,-8.0544 51.9965,-177.08334 45.6548,-212.25564 -13.847,-76.7988 -21.373,-145.97435 -5.3922,-216.3060205 11.6081,-51.0874055 27.4491,-111.5311895 71.4286,-139.9999895 z"
       id="path5368-3-3"
       inkscape:connector-curvature="0"
       sodipodi:nodetypes="aaacccccscccccsaa" />
    <path
       style="display:inline;fill:#d40000;fill-rule:evenodd;stroke:#000000;stroke-width:15;stroke-linecap:butt;stroke-linejoin:miter;stroke-miterlimit:4;stroke-dasharray:none;stroke-opacity:1"
       d="m -3111.3794,-134.3 c 36.298,-26.21043 95.4911,-25.20703 134.2857,-2.8572 36.2867,20.905 56.2916,68.354269 60.6932,109.999989 3.3159,31.3723616 -24.3237,59.193883 -27.388,90.591815 -4.405,45.136016 13.4489,135.385036 13.4489,135.385036 l -93.897,-104.548241 c -24.3949,34.386531 -98.9142,105.539151 -154.6077,134.709251 22.0532,3.15047 26.6383,-152.48162 15.5882,-217.219745 -8.1035,-47.474578 9.989,-115.814235 51.8767,-146.060905 z"
       id="path5370-9-5"
       inkscape:connector-curvature="0"
       sodipodi:nodetypes="aaaacccsa" />
    <path
       style="display:inline;fill:#ffd42a;fill-rule:evenodd;stroke:#000000;stroke-width:40;stroke-linecap:butt;stroke-linejoin:miter;stroke-miterlimit:18;stroke-dasharray:none;stroke-opacity:1"
       d="m -12.445584,1842.3109 c -84.0208,37.2384 -107.595356,191.4448 -108.608356,278.3181 55.616448,337.1715 -153.19415,465.3618 -230.00337,594.6894 0,0 187.54667,-56.3076 230.94497,-121.0361 34.191996,-50.9974 122.5012563,-112.6596 126.2227563,-90.9894 -58.4285003,154.9907 -190.1020063,487.632 -190.1020063,487.632 0,0 222.255606,-325.2626 271.643508,-285.4332 35.180102,33.9527 -3.0592,150.7801 4.5802,164.5702 -17.0907,177.4678 -11.850695,283.7476 -11.850695,283.7476 0,0 126.415417,-219.7622 131.259517,-320.9482 6.0119,-125.5804 13.08848,-183.3787 75.30188,-277.274 137.9341,169.0085 73.3894,159.801 161.00599,269.9896 71.3797,40.7262 159.01308,338.5468 159.01308,338.5468 0,0 -0.45532,-326.9617 -64.3245,-397.3083 -29.85463,-87.771 -27.69229,-89.3614 43.62471,-152.9636 64.9572,-57.9304 232.45824,287.8374 232.45824,287.8374 0,0 -73.73978,-241.7931 -128.19732,-355.3207 -44.97669,-93.7629 -151.463,-193.7927 -162.60605,-266.2494 -34.1079,-159.4743 -29.64024,-148.8253 -25.00974,-215.1069 5.1868,-73.136 2.65119,-112.8867 -33.30571,-171.4989 -40.1751,-60.9837 -156.9313,-74.2134 -220.5688,-83.8498 -93.4511,-20.9143 -181.710402,-6.9718 -261.478304,32.6474 z"
       id="path5366-4-4-3"
       inkscape:connector-curvature="0"
       sodipodi:nodetypes="cccscccccsccccscaccccc" />
    <path
       style="display:inline;fill:#ff6600;fill-rule:evenodd;stroke:#000000;stroke-width:20;stroke-linecap:butt;stroke-linejoin:miter;stroke-miterlimit:4;stroke-dasharray:none;stroke-opacity:1"
       d="m 27.481816,1887.1815 c 76.220024,-57.3017 205.713894,-66.1789 285.714304,-14.2857 50.66646,32.8654 56.00715,109.2783 65.51125,168.918 9.10128,57.112 -14.53895,107.8477 -9.34885,173.2459 17.9393,75.8299 39.24043,128.5935 83.06013,205.8579 -19.2408,-11.435 -60.58129,-48.3126 -105.97679,-78.1828 -13.4794,27.8217 6.87398,94.557 10.79478,142.2234 -54.9886,-56.6639 -58.68885,-110.0744 -111.36905,-176.7368 l -4.12465,87.8782 c -2.04884,43.6518 -33.99856,89.4082 -33.99856,89.4082 0,0 -20.31443,-132.3053 -33.44893,-146.0363 -3.0577,37.4969 -72.3329,135.9782 -76.221901,128.2002 6.826001,-18.5467 9.584631,-128.6882 -4.327765,-137.3459 -23.537202,-7.5707 -72.94701,72.3947 -115.32571,85.0113 7.551,-8.0544 23.7122285,-140.7178 17.3705285,-175.8901 -13.8469995,-76.7988 -33.0447535,-119.5015 -27.6155555,-179.9406 5.435084,-60.5047 10.749977,-135.8203 59.306769,-172.3249 z"
       id="path5368-3-3-4"
       inkscape:connector-curvature="0"
       sodipodi:nodetypes="aaacccccscccccsaa" />
    <path
       style="display:inline;fill:#d40000;fill-rule:evenodd;stroke:#000000;stroke-width:15;stroke-linecap:butt;stroke-linejoin:miter;stroke-miterlimit:4;stroke-dasharray:none;stroke-opacity:1"
       d="m 135.99969,1890.2341 c 28.58068,-18.4227 73.9295,-16.0446 101.96082,3.2037 24.36607,16.7316 30.54572,52.4145 34.42922,81.7158 3.64692,27.5163 -7.77898,54.9685 -11.22555,82.5106 -3.19928,25.5659 -8.77446,76.7963 -8.77446,76.7963 l -77.73456,-92.4265 c -24.3949,34.3866 -72.65023,48.9707 -108.140682,72.0799 0,0 40.780432,-63.5883 29.730337,-128.3265 -8.1035,-47.4745 10.758915,-76.8628 39.754875,-95.5533 z"
       id="path5370-9-5-8"
       inkscape:connector-curvature="0"
       sodipodi:nodetypes="aaaacccsa" />
    <path
       style="display:inline;fill:#ffd42a;fill-rule:evenodd;stroke:#000000;stroke-width:40;stroke-linecap:butt;stroke-linejoin:miter;stroke-miterlimit:18;stroke-dasharray:none;stroke-opacity:1"
       d="m -1576.9105,1607.767 c -84.0208,37.2384 -121.7375,92.4499 -122.7505,179.3232 221.8082,558.7176 -398.5327,110.1382 -398.5327,110.1382 0,0 172.2387,216.5156 287.6396,287.766 75.3724,46.5362 248.4781,62.0844 252.1996,83.7546 -90.7534,128.7267 -198.9606,683.3637 -198.9606,683.3637 0,0 254.3601,-483.2772 303.748,-443.4478 35.1801,33.9527 9.4092,154.4916 17.0486,168.2817 -17.0907,177.4678 59.5112,426.1668 59.5112,426.1668 0,0 79.9484,-304.6151 84.7925,-405.8011 6.0119,-125.5804 22.3952,-130.7072 63.18,-238.8883 175.2407,244.9694 195.3849,343.2684 275.57249,580.2522 19.95459,-95.9807 3.92903,-245.5041 -68.36519,-429.6331 -23.7937,-132.2178 -21.6314,-222.7015 49.6856,-286.3037 64.9573,-57.9304 190.03197,-1.0663 190.03197,-1.0663 0,0 -109.79677,-83.2532 -170.62377,-114.9044 -32.95079,-17.1459 -72.6712,-20.0464 -104.0173,-39.9752 -34.1079,-159.4743 26.9283,-245.7999 31.5588,-312.0815 5.1868,-73.136 -33.7143,-137.1304 -69.6712,-195.7426 -40.1751,-60.9837 -156.9313,-74.2134 -220.5688,-83.8498 -93.4511,-20.9143 -181.7104,-6.9718 -261.4783,32.6474 z"
       id="path5366-4-1"
       inkscape:connector-curvature="0"
       sodipodi:nodetypes="cccacccccscccscaccccc" />
    <path
       style="display:inline;fill:#ff6600;fill-rule:evenodd;stroke:#000000;stroke-width:20;stroke-linecap:butt;stroke-linejoin:miter;stroke-miterlimit:4;stroke-dasharray:none;stroke-opacity:1"
       d="m -1536.9831,1652.6376 c 80.0494,-51.8176 202.8755,-61.5161 285.7143,-14.2857 53.2921,30.3844 73.4995,102.74 85.7143,162.8571 13.2746,65.3333 -21.8849,133.9086 -16.6948,199.3068 10.0611,75.8299 34.0339,150.5297 82.3249,234.3452 -26.3837,-12.8636 -96.7438,-101.0262 -113.855,-124.8355 -5.4581,29.4259 7.2828,144.2719 -6.8557,188.3264 -37.6916,-94.1407 -58.0231,-145.8658 -99.9825,-218.6135 0,0 -26.4548,78.051 -36.4496,117.9797 -10.1938,40.7235 -23.897,123.6519 -23.897,123.6519 0,0 -22.8844,-172.1443 -36.0189,-185.8753 -14.5064,14.5994 -84.979,227.7521 -84.979,227.7521 6.5001,-62.9145 24.4996,-241.5792 26.4076,-283.4663 -23.5372,-7.5707 -65.8462,53.7637 -108.2249,66.3803 7.551,-8.0544 53.7717,-98.0043 47.43,-133.1766 -13.847,-76.7988 -78.0723,-143.3037 -72.0623,-220.3466 4.0744,-52.2309 27.4491,-111.5312 71.4286,-140 z"
       id="path5368-3-30"
       inkscape:connector-curvature="0"
       sodipodi:nodetypes="aaacccccacccccsaa" />
    <path
       style="display:inline;fill:#d40000;fill-rule:evenodd;stroke:#000000;stroke-width:15;stroke-linecap:butt;stroke-linejoin:miter;stroke-miterlimit:4;stroke-dasharray:none;stroke-opacity:1"
       d="m -1454.7292,1663.7715 c 40.0107,-26.7059 102.5368,-26.7546 144.2857,-2.8572 38.8566,22.2418 62.8474,72.4627 65.7143,117.1429 2.2026,34.3274 -34.9263,61.51 -38.5715,95.7143 -4.455,41.8031 21.4286,124.2857 21.4286,124.2857 l -100,-81.4286 -71.4286,60 c 0,0 -81.7868,-108.9695 -82.8571,-172.8571 -0.8536,-50.9541 19.0419,-111.7082 61.4286,-140 z"
       id="path5370-9-55"
       inkscape:connector-curvature="0"
       sodipodi:nodetypes="aaaacccaa" />
  </g>
  <g
     inkscape:groupmode="layer"
     id="layer11"
     inkscape:label="BluePart">
    <path
       style="fill:#ff6600;fill-rule:evenodd;stroke:#000000;stroke-width:20;stroke-linecap:butt;stroke-linejoin:miter;stroke-miterlimit:4;stroke-dasharray:none;stroke-opacity:1"
       d="m 19.24341,-47.047269 c 80.049426,-51.81756 202.8755,-61.516061 285.71429,-14.28571 53.29215,30.38439 78.06417,101.99055 85.71429,162.857139 8.18116,65.09166 -50.90435,126.03043 -45.71429,191.42858 30.06109,75.82993 57.42327,144.75593 62.85715,220 -13.86246,-27.57015 -28.92091,-52.38034 -51.42858,-60 -23.9672,27.11232 -21.70797,72.89329 -11.42857,119.99999 -37.69155,-94.14071 -78.04052,-182.96657 -145.71428,-217.14285 0,0 -39.14194,64.16248 -48.57143,99.99999 -7.77002,29.53055 -5.71428,91.42858 -5.71428,91.42858 -7.74724,-24.50553 -18.29405,-43.41191 -31.42858,-57.14286 C 99.022756,504.6949 93.053326,522.9529 87.814846,541.52416 81.92264,502.11338 78.05465,462.50018 59.24341,424.38131 35.7062,416.81063 -5.6222902,409.90284 -48.00097,422.51945 c 7.55103,-8.05444 96.44319,-80.1087 90.10152,-115.281 C 28.25351,230.43965 -54.41947,170.95789 -52.18516,92.952738 -50.68517,40.584601 -24.73611,-18.578458 19.24341,-47.047269 Z"
       id="path5368"
       inkscape:connector-curvature="0"
       sodipodi:nodetypes="aaacccccacccccsaa" />
  </g>
  <g
     inkscape:label="Centre"
     inkscape:groupmode="layer"
     id="layer1"
     style="display:inline">
    <path
       style="fill:#d40000;fill-rule:evenodd;stroke:#000000;stroke-width:15;stroke-linecap:butt;stroke-linejoin:miter;stroke-miterlimit:4;stroke-dasharray:none;stroke-opacity:1"
       d="m 101.4973,-35.913391 c 35.06137,-27.84306 96.51631,-26.89892 134.28572,-2.85714 33.81302,21.52338 47.07205,69.945939 48.57143,109.999999 1.17189,31.305472 -28.24007,57.406722 -31.42857,88.571432 -2.83768,27.73575 11.42857,82.85714 11.42857,82.85714 l -75.71429,-50 -65.71428,35.71429 c 0,0 -53.017963,-78.87511 -57.142873,-124.28572 C 61.426187,56.122878 63.781847,-5.9626609 101.4973,-35.913391 Z"
       id="path5370"
       inkscape:connector-curvature="0"
       sodipodi:nodetypes="aaaacccaa" />
  </g>
</svg>
